<?xml version="1.0" encoding="UTF-8"?>
<svg width="200px" height="180px" viewBox="0 0 200 180" version="1.1" xmlns="http://www.w3.org/2000/svg" xmlns:xlink="http://www.w3.org/1999/xlink">
    <g stroke="none" stroke-width="1" fill="none" fill-rule="evenodd">
        <g transform="translate(0.000000, 0.000000)">
            <rect fill="#F8F9FA" x="0" y="0" width="200" height="180" rx="8"></rect>
            <g transform="translate(40.000000, 30.000000)">
                <!-- Left speech bubble -->
                <g transform="translate(0.000000, 0.000000)">
                    <path d="M0,0 L60,0 C66.627417,-1.21743675e-15 72,5.372583 72,12 L72,40 C72,46.627417 66.627417,52 60,52 L12,52 L0,65 L0,0 Z" fill="#E9ECEF"></path>
                    <rect fill="#DEE2E6" x="12" y="16" width="48" height="6" rx="3"></rect>
                    <rect fill="#DEE2E6" x="12" y="28" width="36" height="6" rx="3"></rect>
                </g>
                
                <!-- Right speech bubble -->
                <g transform="translate(48.000000, 70.000000)">
                    <path d="M0,0 L60,0 C66.627417,-1.21743675e-15 72,5.372583 72,12 L72,40 C72,46.627417 66.627417,52 60,52 L12,52 L0,65 L0,12 C-8.11624501e-16,5.372583 5.372583,1.21743675e-15 12,0 Z" fill="#E7F7FF"></path>
                    <circle fill="#13A394" opacity="0.2" cx="36" cy="26" r="16"></circle>
                    <path d="M28,26 L44,26" stroke="#FFFFFF" stroke-width="2" stroke-linecap="round"></path>
                    <path d="M36,18 L36,34" stroke="#FFFFFF" stroke-width="2" stroke-linecap="round"></path>
                </g>
            </g>
        </g>
    </g>
</svg>
