<?xml version="1.0" encoding="UTF-8"?>
<svg width="200px" height="180px" viewBox="0 0 200 180" version="1.1" xmlns="http://www.w3.org/2000/svg" xmlns:xlink="http://www.w3.org/1999/xlink">
    <g stroke="none" stroke-width="1" fill="none" fill-rule="evenodd">
        <g transform="translate(0.000000, 0.000000)">
            <rect fill="#F8F9FA" x="0" y="0" width="200" height="180" rx="8"></rect>
            <g transform="translate(50.000000, 20.000000)">
                <!-- Profile picture placeholder -->
                <circle fill="#DEE2E6" cx="50" cy="40" r="30"></circle>
                <circle fill="#FFFFFF" cx="50" cy="30" r="12"></circle>
                <path d="M28,60 C28,46.745166 37.8497355,36 50,36 C62.1502645,36 72,46.745166 72,60" fill="#FFFFFF"></path>
                
                <!-- Profile info lines -->
                <rect fill="#DEE2E6" x="20" y="80" width="60" height="8" rx="4"></rect>
                <rect fill="#DEE2E6" x="30" y="96" width="40" height="6" rx="3"></rect>
                
                <!-- Profile stats -->
                <rect fill="#13A394" opacity="0.1" x="0" y="116" width="30" height="30" rx="4"></rect>
                <rect fill="#13A394" opacity="0.1" x="35" y="116" width="30" height="30" rx="4"></rect>
                <rect fill="#13A394" opacity="0.1" x="70" y="116" width="30" height="30" rx="4"></rect>
                
                <rect fill="#13A394" opacity="0.3" x="10" y="124" width="10" height="10" rx="5"></rect>
                <rect fill="#13A394" opacity="0.3" x="45" y="124" width="10" height="10" rx="5"></rect>
                <rect fill="#13A394" opacity="0.3" x="80" y="124" width="10" height="10" rx="5"></rect>
            </g>
        </g>
    </g>
</svg>
